<svg xmlns="http://www.w3.org/2000/svg" width="346.251" height="33.12" viewBox="0 0 346.251 33.12"><g transform="translate(-440.504 -355.415)"><g transform="translate(178.85 -77.02)"><g transform="translate(261.654 432.439)"><path d="M8.279,33.115H4.172A4.172,4.172,0,0,1,0,28.944H0a4.107,4.107,0,0,1,4.106-4.106H8.279a8.279,8.279,0,1,0,0-16.558H4.139A4.139,4.139,0,0,1,0,4.139H0A4.139,4.139,0,0,1,4.139,0H8.279a16.562,16.562,0,0,1,6.445,31.814A16.453,16.453,0,0,1,8.279,33.115Z" transform="translate(0)" fill="#3ad9c4"/></g><g transform="translate(336.17 432.439)"><path d="M24.845,28.944a4.172,4.172,0,0,1-4.172,4.172H16.567A16.562,16.562,0,0,1,10.122,1.3,16.453,16.453,0,0,1,16.567,0h4.139a4.139,4.139,0,0,1,4.139,4.139h0a4.139,4.139,0,0,1-4.139,4.139H16.567a8.279,8.279,0,1,0,0,16.558h4.173a4.107,4.107,0,0,1,4.106,4.106Z" transform="translate(-0.015 0)" fill="#3ad9c4"/></g><g transform="translate(294.776 432.435)"><path d="M16.567,33.109a16.56,16.56,0,1,1,0-33.12,16.562,16.562,0,0,1,6.445,31.819A16.453,16.453,0,0,1,16.567,33.109Zm0-24.837a8.279,8.279,0,1,0,8.279,8.279A8.318,8.318,0,0,0,16.567,8.272Z" transform="translate(-0.016 0.011)" fill="#3ad9c4"/></g><g transform="translate(367.555 465.095)"><path d="M6.256-32.2h15.41a2.893,2.893,0,0,1,2.024.736,2.742,2.742,0,0,1,.782,1.978,2.36,2.36,0,0,1-.782,1.84,2.893,2.893,0,0,1-2.024.736H8.786l.414-.782v8.97l-.368-.368H19.6a2.911,2.911,0,0,1,1.978.736,2.6,2.6,0,0,1,.828,1.978,2.253,2.253,0,0,1-.828,1.84A2.707,2.707,0,0,1,19.6-13.8H8.97l.23-.368v9.292L8.832-5.29H21.666a2.932,2.932,0,0,1,2.024.782,2.767,2.767,0,0,1,.782,1.886A2.531,2.531,0,0,1,23.69-.736,2.893,2.893,0,0,1,21.666,0H6.256A2.6,2.6,0,0,1,4.278-.828,2.6,2.6,0,0,1,3.45-2.806V-29.394a2.778,2.778,0,0,1,.828-2.024A2.742,2.742,0,0,1,6.256-32.2Z" fill="#263946"/><g transform="translate(27.692)"><path d="M21.206-5.382a2.707,2.707,0,0,1,1.978.736,2.6,2.6,0,0,1,.828,1.978,2.41,2.41,0,0,1-.828,1.886A2.742,2.742,0,0,1,21.206,0H6.256A2.6,2.6,0,0,1,4.278-.828,2.6,2.6,0,0,1,3.45-2.806V-29.394a2.778,2.778,0,0,1,.828-2.024A3,3,0,0,1,6.394-32.2a2.989,2.989,0,0,1,1.978.782A2.778,2.778,0,0,1,9.2-29.394V-4.6L8.188-5.382Z" fill="#263946"/></g><g transform="translate(54.924)"><path d="M6.256-32.2h15.41a2.893,2.893,0,0,1,2.024.736,2.742,2.742,0,0,1,.782,1.978,2.36,2.36,0,0,1-.782,1.84,2.893,2.893,0,0,1-2.024.736H8.786l.414-.782v8.97l-.368-.368H19.6a2.911,2.911,0,0,1,1.978.736,2.6,2.6,0,0,1,.828,1.978,2.253,2.253,0,0,1-.828,1.84A2.707,2.707,0,0,1,19.6-13.8H8.97l.23-.368v9.292L8.832-5.29H21.666a2.932,2.932,0,0,1,2.024.782,2.767,2.767,0,0,1,.782,1.886A2.531,2.531,0,0,1,23.69-.736,2.893,2.893,0,0,1,21.666,0H6.256A2.6,2.6,0,0,1,4.278-.828,2.6,2.6,0,0,1,3.45-2.806V-29.394a2.778,2.778,0,0,1,.828-2.024A2.742,2.742,0,0,1,6.256-32.2Z" fill="#263946"/></g><g transform="translate(82.616)"><path d="M6.348-32.246a3.316,3.316,0,0,1,1.38.322A2.612,2.612,0,0,1,8.786-31L19.964-13.8l-2.3-.092L29.118-31a2.67,2.67,0,0,1,2.254-1.242,2.989,2.989,0,0,1,1.978.782,2.52,2.52,0,0,1,.874,2.024V-2.806a2.742,2.742,0,0,1-.782,1.978A2.669,2.669,0,0,1,31.372,0a2.842,2.842,0,0,1-2.116-.828,2.742,2.742,0,0,1-.782-1.978V-24.472l1.794.414L20.884-9.752a3.757,3.757,0,0,1-1.012.874,2.241,2.241,0,0,1-1.288.322,1.965,1.965,0,0,1-1.2-.322,3.98,3.98,0,0,1-1.058-.874L7.544-23.644l1.2-2.438V-2.806A2.707,2.707,0,0,1,8-.828,2.506,2.506,0,0,1,6.072,0,2.41,2.41,0,0,1,4.186-.828,2.707,2.707,0,0,1,3.45-2.806V-29.44a2.556,2.556,0,0,1,.874-1.978A2.778,2.778,0,0,1,6.348-32.246Z" fill="#263946"/></g><g transform="translate(121.67)"><path d="M6.256-32.2h15.41a2.893,2.893,0,0,1,2.024.736,2.742,2.742,0,0,1,.782,1.978,2.36,2.36,0,0,1-.782,1.84,2.893,2.893,0,0,1-2.024.736H8.786l.414-.782v8.97l-.368-.368H19.6a2.911,2.911,0,0,1,1.978.736,2.6,2.6,0,0,1,.828,1.978,2.253,2.253,0,0,1-.828,1.84A2.707,2.707,0,0,1,19.6-13.8H8.97l.23-.368v9.292L8.832-5.29H21.666a2.932,2.932,0,0,1,2.024.782,2.767,2.767,0,0,1,.782,1.886A2.531,2.531,0,0,1,23.69-.736,2.893,2.893,0,0,1,21.666,0H6.256A2.6,2.6,0,0,1,4.278-.828,2.6,2.6,0,0,1,3.45-2.806V-29.394a2.778,2.778,0,0,1,.828-2.024A2.742,2.742,0,0,1,6.256-32.2Z" fill="#263946"/></g><g transform="translate(149.362)"><path d="M27.876-32.2a2.294,2.294,0,0,1,1.794.736,2.612,2.612,0,0,1,.69,1.84V-2.806a2.742,2.742,0,0,1-.782,1.978A2.778,2.778,0,0,1,27.554,0a3.673,3.673,0,0,1-1.2-.23,2.429,2.429,0,0,1-.966-.552L7.314-23.736l1.2-.736v21.9a2.612,2.612,0,0,1-.69,1.84A2.5,2.5,0,0,1,5.934,0,2.294,2.294,0,0,1,4.14-.736a2.612,2.612,0,0,1-.69-1.84V-29.394a2.778,2.778,0,0,1,.828-2.024A2.742,2.742,0,0,1,6.256-32.2a4.783,4.783,0,0,1,1.334.23,2.222,2.222,0,0,1,1.012.782L26.128-8.832l-.782.552V-29.624a2.612,2.612,0,0,1,.69-1.84A2.328,2.328,0,0,1,27.876-32.2Z" fill="#263946"/></g><g transform="translate(184.552)"><path d="M14.352,0a2.842,2.842,0,0,1-2.116-.828,2.6,2.6,0,0,1-.828-1.978v-26.68h5.98v26.68A2.6,2.6,0,0,1,16.56-.828,3.134,3.134,0,0,1,14.352,0ZM4.186-26.91a2.707,2.707,0,0,1-1.978-.736,2.506,2.506,0,0,1-.828-1.932,2.506,2.506,0,0,1,.828-1.932,2.88,2.88,0,0,1,1.978-.69H24.61a2.893,2.893,0,0,1,2.024.736,2.635,2.635,0,0,1,.782,1.932,2.46,2.46,0,0,1-.782,1.886,2.893,2.893,0,0,1-2.024.736Z" fill="#263946"/></g><g transform="translate(214.728)"><path d="M13.8.46A18.757,18.757,0,0,1,8-.368,13.712,13.712,0,0,1,3.082-3.174a3.63,3.63,0,0,1-.92-1.15A2.672,2.672,0,0,1,1.84-5.612,2.767,2.767,0,0,1,2.622-7.5,2.531,2.531,0,0,1,4.508-8.28a2.407,2.407,0,0,1,1.564.552,15.151,15.151,0,0,0,3.45,2.162A10.8,10.8,0,0,0,13.8-4.83a8.6,8.6,0,0,0,3.128-.552,5.766,5.766,0,0,0,2.3-1.426A2.72,2.72,0,0,0,20.1-8.832a3.482,3.482,0,0,0-.828-2.346,6.36,6.36,0,0,0-2.53-1.656,20.727,20.727,0,0,0-4.324-1.012A18.3,18.3,0,0,1,8.05-15a9.247,9.247,0,0,1-3.128-1.932,7.17,7.17,0,0,1-1.932-2.76,9.53,9.53,0,0,1-.644-3.542A8.315,8.315,0,0,1,3.91-28.336a9.384,9.384,0,0,1,4.14-3.22,14.791,14.791,0,0,1,5.8-1.1,16.81,16.81,0,0,1,5.566.874,12.642,12.642,0,0,1,4.14,2.3,3.091,3.091,0,0,1,1.334,2.438,2.66,2.66,0,0,1-.782,1.84,2.452,2.452,0,0,1-1.84.828,2.018,2.018,0,0,1-1.242-.414,10.571,10.571,0,0,0-1.978-1.242A22.05,22.05,0,0,0,16.422-27a10.856,10.856,0,0,0-2.576-.368,9.643,9.643,0,0,0-3.312.506,4.327,4.327,0,0,0-2.07,1.38,3.173,3.173,0,0,0-.69,2.024A3.094,3.094,0,0,0,8.6-21.206a4.935,4.935,0,0,0,2.3,1.426,24.037,24.037,0,0,0,3.634.966,36.048,36.048,0,0,1,4.876,1.2,11.081,11.081,0,0,1,3.45,1.794,6.411,6.411,0,0,1,2.07,2.714,9.994,9.994,0,0,1,.69,3.956A8.225,8.225,0,0,1,23.966-4,10.793,10.793,0,0,1,19.642-.69,14.552,14.552,0,0,1,13.8.46Z" fill="#263946"/></g></g></g></g></svg>