<?xml version="1.0" encoding="UTF-8" standalone="no"?>
<!DOCTYPE svg PUBLIC "-//W3C//DTD SVG 1.1//EN" "http://www.w3.org/Graphics/SVG/1.1/DTD/svg11.dtd">
<svg width="100%" height="100%" viewBox="0 0 240 131" version="1.1" xmlns="http://www.w3.org/2000/svg" xmlns:xlink="http://www.w3.org/1999/xlink" xml:space="preserve" xmlns:serif="http://www.serif.com/" style="fill-rule:evenodd;clip-rule:evenodd;stroke-linejoin:round;stroke-miterlimit:2;">
    <g transform="matrix(1,0,0,1,-289.85,-331.969)">
        <g transform="matrix(1,0,0,1,178.85,-77.02)">
            <g id="Trazado_6" transform="matrix(1,0,0,1,111,409)">
                <path d="M20,80L10.078,80C4.512,80 0,75.488 0,69.922L0,69.92C-0,67.289 1.045,64.766 2.906,62.906C4.766,61.045 7.289,60 9.92,60L20,60C30.972,60 40,50.972 40,40C40,29.028 30.972,20 20,20L10,20C4.477,20 0,15.523 0,10L0,10C0,4.477 4.477,-0 10,-0L20,0C41.938,0.016 59.982,18.073 59.982,40.011C59.982,56.049 50.339,70.603 35.57,76.856C30.645,78.941 25.349,80.01 20,80Z" style="fill:rgb(58,217,196);fill-rule:nonzero;"/>
            </g>
            <g id="Trazado_4" transform="matrix(1,0,0,1,291,409)">
                <path d="M60,69.922C60,75.488 55.488,80 49.922,80L40,80C18.061,79.986 0.015,61.929 0.015,39.99C0.015,23.951 9.66,9.395 24.431,3.144C29.356,1.059 34.652,-0.01 40,0L50,0C55.523,0 60,4.477 60,10L60,10C60,15.523 55.523,20 50,20L40,20C29.028,20 20,29.028 20,40C20,50.972 29.028,60 40,60L50.08,60C52.711,60 55.234,61.045 57.094,62.906C58.955,64.766 60,67.289 60,69.92L60,69.922Z" style="fill:rgb(58,217,196);fill-rule:nonzero;"/>
            </g>
            <g id="Trazado_5" transform="matrix(1,0,0,1,191,409)">
                <path d="M40,80C18.061,79.985 0.016,61.928 0.016,39.989C0.016,23.95 9.66,9.395 24.43,3.143C29.357,1.062 34.652,-0.011 40,-0.011C61.949,-0.011 80.01,18.05 80.01,40C80.01,56.049 70.354,70.611 55.57,76.856C50.645,78.941 45.349,80.01 40,80ZM40,20C29.028,20 20,29.028 20,40C20,50.972 29.028,60 40,60C50.972,60 60,50.972 60,40C59.988,29.033 50.967,20.012 40,20Z" style="fill:rgb(58,217,196);fill-rule:nonzero;"/>
            </g>
            <g transform="matrix(1,0,0,1,108.55,539)">
                <g transform="matrix(46,0,0,46,0,0)">
                    <path d="M0.136,-0.7L0.471,-0.7C0.488,-0.7 0.503,-0.695 0.515,-0.684C0.526,-0.673 0.532,-0.658 0.532,-0.641C0.532,-0.624 0.526,-0.611 0.515,-0.601C0.503,-0.59 0.488,-0.585 0.471,-0.585L0.191,-0.585L0.2,-0.602L0.2,-0.407L0.192,-0.415L0.426,-0.415C0.443,-0.415 0.458,-0.409 0.469,-0.399C0.481,-0.388 0.487,-0.373 0.487,-0.356C0.487,-0.339 0.481,-0.326 0.469,-0.316C0.458,-0.305 0.443,-0.3 0.426,-0.3L0.195,-0.3L0.2,-0.308L0.2,-0.106L0.192,-0.115L0.471,-0.115C0.488,-0.115 0.503,-0.109 0.515,-0.098C0.526,-0.086 0.532,-0.072 0.532,-0.057C0.532,-0.04 0.526,-0.027 0.515,-0.016C0.503,-0.005 0.488,-0 0.471,-0L0.136,-0C0.119,-0 0.104,-0.006 0.093,-0.018C0.081,-0.029 0.075,-0.044 0.075,-0.061L0.075,-0.639C0.075,-0.656 0.081,-0.671 0.093,-0.683C0.104,-0.694 0.119,-0.7 0.136,-0.7Z" style="fill:rgb(38,57,70);fill-rule:nonzero;"/>
                </g>
                <g transform="matrix(46,0,0,46,27.692,0)">
                    <path d="M0.461,-0.117C0.478,-0.117 0.493,-0.112 0.504,-0.101C0.516,-0.09 0.522,-0.075 0.522,-0.058C0.522,-0.041 0.516,-0.028 0.504,-0.017C0.493,-0.006 0.478,-0 0.461,-0L0.136,-0C0.119,-0 0.104,-0.006 0.093,-0.018C0.081,-0.029 0.075,-0.044 0.075,-0.061L0.075,-0.639C0.075,-0.656 0.081,-0.671 0.093,-0.683C0.105,-0.694 0.12,-0.7 0.139,-0.7C0.155,-0.7 0.169,-0.694 0.182,-0.683C0.194,-0.671 0.2,-0.656 0.2,-0.639L0.2,-0.1L0.178,-0.117L0.461,-0.117Z" style="fill:rgb(38,57,70);fill-rule:nonzero;"/>
                </g>
                <g transform="matrix(46,0,0,46,54.924,0)">
                    <path d="M0.136,-0.7L0.471,-0.7C0.488,-0.7 0.503,-0.695 0.515,-0.684C0.526,-0.673 0.532,-0.658 0.532,-0.641C0.532,-0.624 0.526,-0.611 0.515,-0.601C0.503,-0.59 0.488,-0.585 0.471,-0.585L0.191,-0.585L0.2,-0.602L0.2,-0.407L0.192,-0.415L0.426,-0.415C0.443,-0.415 0.458,-0.409 0.469,-0.399C0.481,-0.388 0.487,-0.373 0.487,-0.356C0.487,-0.339 0.481,-0.326 0.469,-0.316C0.458,-0.305 0.443,-0.3 0.426,-0.3L0.195,-0.3L0.2,-0.308L0.2,-0.106L0.192,-0.115L0.471,-0.115C0.488,-0.115 0.503,-0.109 0.515,-0.098C0.526,-0.086 0.532,-0.072 0.532,-0.057C0.532,-0.04 0.526,-0.027 0.515,-0.016C0.503,-0.005 0.488,-0 0.471,-0L0.136,-0C0.119,-0 0.104,-0.006 0.093,-0.018C0.081,-0.029 0.075,-0.044 0.075,-0.061L0.075,-0.639C0.075,-0.656 0.081,-0.671 0.093,-0.683C0.104,-0.694 0.119,-0.7 0.136,-0.7Z" style="fill:rgb(38,57,70);fill-rule:nonzero;"/>
                </g>
                <g transform="matrix(46,0,0,46,82.616,0)">
                    <path d="M0.138,-0.701C0.147,-0.701 0.157,-0.699 0.168,-0.694C0.178,-0.689 0.186,-0.682 0.191,-0.674L0.434,-0.3L0.384,-0.302L0.633,-0.674C0.646,-0.692 0.662,-0.701 0.682,-0.701C0.698,-0.701 0.712,-0.695 0.725,-0.684C0.738,-0.673 0.744,-0.658 0.744,-0.64L0.744,-0.061C0.744,-0.044 0.738,-0.029 0.727,-0.018C0.716,-0.006 0.701,-0 0.682,-0C0.663,-0 0.648,-0.006 0.636,-0.018C0.625,-0.029 0.619,-0.044 0.619,-0.061L0.619,-0.532L0.658,-0.523L0.454,-0.212C0.448,-0.205 0.441,-0.198 0.432,-0.193C0.423,-0.188 0.413,-0.185 0.404,-0.186C0.395,-0.185 0.387,-0.188 0.378,-0.193C0.369,-0.198 0.361,-0.205 0.355,-0.212L0.164,-0.514L0.19,-0.567L0.19,-0.061C0.19,-0.044 0.185,-0.029 0.174,-0.018C0.163,-0.006 0.149,-0 0.132,-0C0.115,-0 0.102,-0.006 0.091,-0.018C0.08,-0.029 0.075,-0.044 0.075,-0.061L0.075,-0.64C0.075,-0.657 0.081,-0.671 0.094,-0.683C0.106,-0.695 0.121,-0.701 0.138,-0.701Z" style="fill:rgb(38,57,70);fill-rule:nonzero;"/>
                </g>
                <g transform="matrix(46,0,0,46,121.67,0)">
                    <path d="M0.136,-0.7L0.471,-0.7C0.488,-0.7 0.503,-0.695 0.515,-0.684C0.526,-0.673 0.532,-0.658 0.532,-0.641C0.532,-0.624 0.526,-0.611 0.515,-0.601C0.503,-0.59 0.488,-0.585 0.471,-0.585L0.191,-0.585L0.2,-0.602L0.2,-0.407L0.192,-0.415L0.426,-0.415C0.443,-0.415 0.458,-0.409 0.469,-0.399C0.481,-0.388 0.487,-0.373 0.487,-0.356C0.487,-0.339 0.481,-0.326 0.469,-0.316C0.458,-0.305 0.443,-0.3 0.426,-0.3L0.195,-0.3L0.2,-0.308L0.2,-0.106L0.192,-0.115L0.471,-0.115C0.488,-0.115 0.503,-0.109 0.515,-0.098C0.526,-0.086 0.532,-0.072 0.532,-0.057C0.532,-0.04 0.526,-0.027 0.515,-0.016C0.503,-0.005 0.488,-0 0.471,-0L0.136,-0C0.119,-0 0.104,-0.006 0.093,-0.018C0.081,-0.029 0.075,-0.044 0.075,-0.061L0.075,-0.639C0.075,-0.656 0.081,-0.671 0.093,-0.683C0.104,-0.694 0.119,-0.7 0.136,-0.7Z" style="fill:rgb(38,57,70);fill-rule:nonzero;"/>
                </g>
                <g transform="matrix(46,0,0,46,149.362,0)">
                    <path d="M0.606,-0.7C0.622,-0.7 0.635,-0.695 0.645,-0.684C0.655,-0.673 0.66,-0.66 0.66,-0.644L0.66,-0.061C0.66,-0.044 0.654,-0.029 0.643,-0.018C0.631,-0.006 0.616,-0 0.599,-0C0.59,-0 0.582,-0.002 0.573,-0.005C0.564,-0.008 0.557,-0.012 0.552,-0.017L0.159,-0.516L0.185,-0.532L0.185,-0.056C0.185,-0.04 0.18,-0.027 0.17,-0.016C0.159,-0.005 0.146,-0 0.129,-0C0.113,-0 0.1,-0.005 0.09,-0.016C0.08,-0.027 0.075,-0.04 0.075,-0.056L0.075,-0.639C0.075,-0.656 0.081,-0.671 0.093,-0.683C0.104,-0.694 0.119,-0.7 0.136,-0.7C0.145,-0.7 0.155,-0.698 0.165,-0.695C0.175,-0.691 0.182,-0.685 0.187,-0.678L0.568,-0.192L0.551,-0.18L0.551,-0.644C0.551,-0.66 0.556,-0.673 0.566,-0.684C0.576,-0.695 0.589,-0.7 0.606,-0.7Z" style="fill:rgb(38,57,70);fill-rule:nonzero;"/>
                </g>
                <g transform="matrix(46,0,0,46,184.552,0)">
                    <path d="M0.312,-0C0.293,-0 0.278,-0.006 0.266,-0.018C0.254,-0.029 0.248,-0.044 0.248,-0.061L0.248,-0.641L0.378,-0.641L0.378,-0.061C0.378,-0.044 0.372,-0.029 0.36,-0.018C0.347,-0.006 0.331,-0 0.312,-0ZM0.091,-0.585C0.074,-0.585 0.059,-0.59 0.048,-0.601C0.036,-0.612 0.03,-0.626 0.03,-0.643C0.03,-0.66 0.036,-0.674 0.048,-0.685C0.059,-0.695 0.074,-0.7 0.091,-0.7L0.535,-0.7C0.552,-0.7 0.567,-0.695 0.579,-0.684C0.59,-0.673 0.596,-0.659 0.596,-0.642C0.596,-0.625 0.59,-0.611 0.579,-0.601C0.567,-0.59 0.552,-0.585 0.535,-0.585L0.091,-0.585Z" style="fill:rgb(38,57,70);fill-rule:nonzero;"/>
                </g>
                <g transform="matrix(46,0,0,46,214.728,0)">
                    <path d="M0.3,0.01C0.253,0.01 0.211,0.004 0.174,-0.008C0.137,-0.019 0.101,-0.04 0.067,-0.069C0.058,-0.076 0.052,-0.085 0.047,-0.094C0.042,-0.103 0.04,-0.113 0.04,-0.122C0.04,-0.137 0.046,-0.151 0.057,-0.163C0.068,-0.174 0.081,-0.18 0.098,-0.18C0.111,-0.18 0.122,-0.176 0.132,-0.168C0.157,-0.147 0.183,-0.132 0.207,-0.121C0.233,-0.11 0.263,-0.105 0.3,-0.105C0.325,-0.105 0.347,-0.109 0.368,-0.117C0.389,-0.124 0.405,-0.135 0.418,-0.148C0.431,-0.161 0.437,-0.175 0.437,-0.192C0.437,-0.212 0.431,-0.229 0.419,-0.243C0.407,-0.257 0.389,-0.269 0.364,-0.279C0.339,-0.288 0.308,-0.296 0.27,-0.301C0.234,-0.306 0.202,-0.315 0.175,-0.326C0.148,-0.337 0.125,-0.35 0.107,-0.368C0.088,-0.385 0.074,-0.405 0.065,-0.428C0.056,-0.451 0.051,-0.476 0.051,-0.505C0.051,-0.548 0.062,-0.585 0.085,-0.616C0.107,-0.647 0.137,-0.67 0.175,-0.686C0.213,-0.702 0.255,-0.71 0.301,-0.71C0.344,-0.71 0.385,-0.704 0.422,-0.691C0.459,-0.678 0.489,-0.661 0.512,-0.641C0.531,-0.626 0.541,-0.608 0.541,-0.588C0.541,-0.573 0.535,-0.56 0.524,-0.548C0.513,-0.536 0.499,-0.53 0.484,-0.53C0.474,-0.53 0.465,-0.533 0.457,-0.539C0.446,-0.548 0.432,-0.557 0.414,-0.566C0.396,-0.574 0.377,-0.581 0.357,-0.587C0.337,-0.592 0.318,-0.595 0.301,-0.595C0.272,-0.595 0.248,-0.591 0.229,-0.584C0.209,-0.577 0.194,-0.567 0.184,-0.554C0.174,-0.541 0.169,-0.527 0.169,-0.51C0.169,-0.49 0.175,-0.473 0.187,-0.461C0.198,-0.448 0.215,-0.437 0.237,-0.43C0.259,-0.422 0.285,-0.415 0.316,-0.409C0.356,-0.402 0.391,-0.393 0.422,-0.383C0.452,-0.373 0.477,-0.36 0.497,-0.344C0.517,-0.329 0.532,-0.309 0.542,-0.285C0.552,-0.262 0.557,-0.233 0.557,-0.199C0.557,-0.156 0.545,-0.118 0.521,-0.087C0.497,-0.056 0.466,-0.032 0.427,-0.015C0.388,0.002 0.345,0.01 0.3,0.01Z" style="fill:rgb(38,57,70);fill-rule:nonzero;"/>
                </g>
            </g>
        </g>
    </g>
</svg>
